<svg width="120" height="120" viewBox="0 0 120 120" fill="none" xmlns="http://www.w3.org/2000/svg">
<path d="M13.7722 34.039C21.5234 16.9042 38.0501 20.3529 44.2344 28.8467C44.2344 28.8467 50.6621 21.0301 61.8884 24.1735C74.8694 27.8082 74.8694 39.0583 74.8694 39.0583C83.1772 33.6583 90.9658 33.7275 94.7735 35.2506C108.62 40.7891 107.755 54.4624 105.851 61.7317C99.5585 85.7562 92.0042 106.213 90.1004 108.636C88.0439 111.253 86.0327 112.676 83.0041 112.098C80.9969 111.714 78.6771 109.155 78.6771 109.155C71.2001 125.079 61.4846 119.829 57.5615 115.213C54.8499 117.117 47.8344 119.99 41.4651 116.252C35.0958 112.513 31.2534 105.694 30.0418 103.098C28.1658 99.0775 7.19546 48.5777 13.7722 34.039Z" fill="#E67735"/>
<path d="M13.7723 34.0388C21.5235 16.9043 38.05 20.3527 44.2343 28.8464C44.2351 28.8454 44.242 28.837 44.2548 28.822L44.2382 28.8611C46.0838 30.7732 48.8814 34.2392 50.8534 38.5134L71.5751 43.2136C71.9758 42.2779 73.0804 40.5186 74.9012 39.0378C83.1971 33.6586 90.9704 33.7296 94.7733 35.2507C108.619 40.7892 107.754 54.4618 105.85 61.7312C99.5583 85.7557 92.0043 106.213 90.1005 108.636C88.0441 111.254 86.0324 112.676 83.0038 112.097C81.0572 111.725 78.8169 109.307 78.6835 109.162C79.4885 107.229 87.1127 88.8539 90.2128 78.5203C92.8089 69.8663 93.5998 65.366 94.1932 55.6736C94.5473 49.8893 92.712 45.6618 90.3856 43.9041C84.1548 39.1964 75.6156 41.2521 71.577 43.2136C76.8849 41.7137 88.3086 43.9045 89.6932 51.0007C92.9705 62.2125 84.1559 93.2494 78.6708 109.165C71.1944 125.076 61.4837 119.827 57.5614 115.213C54.8498 117.117 47.834 119.99 41.4647 116.252C35.0954 112.513 31.2534 105.694 30.0419 103.097C28.1658 99.0773 7.1956 48.5775 13.7723 34.0388ZM57.5614 115.211C59.8748 98.8587 61.7661 88.5414 56.9813 89.0779C52.1965 89.6144 55.92 105.994 57.5614 115.211ZM53.4471 48.3728C49.6671 45.2479 44.0667 41.3165 36.8837 43.6648C31.1999 45.5231 34.8847 57.693 40.0194 62.9431C40.0194 62.9431 33.6569 44.4567 53.4471 48.3728ZM65.1161 49.4431C66.5586 48.8088 70.3081 50.2054 73.7694 60.866C73.827 56.712 72.1772 47.8854 65.1161 45.8083V49.4431Z" fill="#EE9217"/>
<path d="M55.4849 9.63472L64.6581 1.5C69.3658 6.76161 71.0043 13.154 71.2351 15.6925C72.4813 23.7234 67.7775 32.8924 66.2158 36.462C65.0042 39.2313 69.6774 41.4236 71.5812 43.2121C68.535 44.4583 65.9273 47.8852 65.0042 49.4429C61.6811 47.7814 55.8887 48.0583 53.4079 48.4045C53.0792 43.7432 52.2396 41.982 50.8265 38.4597C50.8265 38.4597 55.0283 37.1219 56.3503 35.5966C58.0811 34.0389 60.8503 27.82 60.8503 22.7887C60.8503 18.981 57.5618 12.1155 55.4849 9.63472Z" fill="#599558"/>
</svg>
