<svg width="50" height="50" viewBox="0 0 50 50" fill="none" xmlns="http://www.w3.org/2000/svg">
<rect width="50" height="50" rx="15" fill="#D75822"/>
<path d="M9.42334 15.8277C12.0026 10.1259 17.5021 11.2735 19.56 14.0999C19.56 14.0999 21.6988 11.4988 25.4345 12.5448C29.7541 13.7543 29.7541 17.4979 29.7541 17.4979C32.5186 15.701 35.1103 15.724 36.3774 16.2308C40.9849 18.0738 40.697 22.6238 40.0634 25.0427C37.9697 33.0371 35.4559 39.8443 34.8224 40.6507C34.1381 41.5216 33.4688 41.9951 32.461 41.8025C31.7931 41.6749 31.0212 40.8234 31.0212 40.8234C28.5331 46.1221 25.3002 44.3751 23.9947 42.8392C23.0924 43.4728 20.7579 44.4288 18.6385 43.1848C16.519 41.9408 15.2404 39.6716 14.8372 38.8077C14.213 37.4699 7.23486 20.6656 9.42334 15.8277Z" fill="#E67735"/>
<path d="M9.42334 15.8274C12.0027 10.126 17.5022 11.2735 19.5601 14.0999C19.5606 14.0992 19.5622 14.0964 19.5659 14.092L19.561 14.1047C20.1752 14.741 21.106 15.8943 21.7622 17.3167L28.6577 18.8811C28.7911 18.5696 29.1589 17.9833 29.7651 17.4905C32.5254 15.7009 35.1121 15.7246 36.3774 16.2307C40.9848 18.0738 40.6965 22.6243 40.063 25.0432C37.9692 33.0374 35.4553 39.8443 34.8218 40.6506C34.1375 41.5214 33.4682 41.9955 32.4604 41.803C31.8117 41.6788 31.0651 40.8714 31.0229 40.8254C31.2911 40.1816 33.8283 34.0675 34.8599 30.6292C35.7237 27.7496 35.9866 26.2518 36.1841 23.0266C36.3018 21.1021 35.6915 19.6955 34.9175 19.1106C32.8441 17.5441 30.0026 18.2284 28.6587 18.8811C30.425 18.3821 34.2263 19.1106 34.687 21.4719C35.7777 25.2035 32.8422 35.5342 31.0171 40.8293C28.5294 46.1203 25.2996 44.3743 23.9946 42.8391C23.0923 43.4726 20.7576 44.4288 18.6382 43.1848C16.519 41.9409 15.2407 39.672 14.8374 38.8079C14.2131 37.4701 7.23486 20.6653 9.42334 15.8274ZM23.8013 34.1428C22.2096 34.3221 23.4485 39.7715 23.9946 42.8381C24.7644 37.397 25.3935 33.9643 23.8013 34.1428ZM22.6255 20.5979C21.3676 19.5581 19.504 18.2491 17.1138 19.0305C15.2224 19.6489 16.4491 23.6985 18.1577 25.4456C18.144 25.4055 16.0616 19.299 22.6255 20.5979ZM26.5083 20.9534C26.9883 20.7422 28.2363 21.2073 29.3882 24.7551C29.4074 23.3729 28.8581 20.4355 26.5083 19.7444V20.9534Z" fill="#EE9217"/>
<path d="M23.3035 7.70692L26.356 5C27.9226 6.75086 28.4678 8.87799 28.5446 9.7227C28.9593 12.3951 27.394 15.4461 26.8744 16.634C26.4712 17.5555 28.0262 18.285 28.6598 18.8801C27.6461 19.2948 26.7784 20.4352 26.4712 20.9535C25.3654 20.4006 23.4379 20.4928 22.6124 20.608C22.503 19.0569 22.2236 18.4708 21.7534 17.2987C21.7534 17.2987 23.1516 16.8536 23.5915 16.346C24.1674 15.8277 25.0889 13.7582 25.0889 12.0841C25.0889 10.817 23.9947 8.53243 23.3035 7.70692Z" fill="#599558"/>
</svg>
